<?xml version="1.0" encoding="UTF-8"?>
<svg id="uuid-a3af4885-397d-4eb6-9a9a-6d0aa460388d" data-name="图层 1" xmlns="http://www.w3.org/2000/svg" xmlns:xlink="http://www.w3.org/1999/xlink" viewBox="0 0 478.02 454.39">
  <defs>
    <style>
      .uuid-a98edb5c-0c78-4d65-8d46-a150f642554c {
        fill: url(#uuid-1e2a8dfe-3c3f-492e-b495-012037a59596);
      }

      .uuid-881f2332-303c-4dad-bc60-78bce5cc33ef {
        fill: #fff68a;
      }

      .uuid-8960c3c0-ca69-46f8-880e-1c01386cc5fa {
        stroke: #ffc44a;
        stroke-width: 18px;
      }

      .uuid-8960c3c0-ca69-46f8-880e-1c01386cc5fa, .uuid-24d6b846-0421-42a4-b777-786b55867374, .uuid-1812f589-9891-4085-91d9-2f1a3e575afe {
        fill: none;
        stroke-miterlimit: 10;
      }

      .uuid-24d6b846-0421-42a4-b777-786b55867374 {
        stroke: #c90077;
        stroke-width: 14px;
      }

      .uuid-1812f589-9891-4085-91d9-2f1a3e575afe {
        stroke: #4a9bff;
        stroke-width: 12px;
      }

      .uuid-749b6b17-a62f-45c3-ae84-accd4f93e9cf {
        fill: #4d4d4d;
      }

      .uuid-dd3dbf29-49bf-40c7-a156-0c14f4a49960 {
        fill: #a67c52;
      }

      .uuid-054a25c2-6ca7-4acb-b1c5-c73222ccb462 {
        fill: #333;
      }

      .uuid-3a06c8a0-e86a-4224-b487-f6bd9e127a78 {
        fill: #c69c6d;
      }

      .uuid-7383fdd9-641e-4789-98a2-2c0912560434 {
        fill: #e6e6e6;
      }

      .uuid-c1c1f0ac-4bff-47e9-9943-e587d3d2559f {
        fill: url(#uuid-50862ffc-5eef-44e1-a206-d00a42f5c644);
      }
    </style>
    <radialGradient id="uuid-1e2a8dfe-3c3f-492e-b495-012037a59596" data-name="未命名的渐变 20" cx="409.43" cy="196.35" fx="409.43" fy="196.35" r="37.9" gradientTransform="translate(39.67 -52.83) rotate(8.34)" gradientUnits="userSpaceOnUse">
      <stop offset="0" stop-color="#ff9d77"/>
      <stop offset=".17" stop-color="#ff995a"/>
      <stop offset=".37" stop-color="#ff9640"/>
      <stop offset=".57" stop-color="#ff942d"/>
      <stop offset=".78" stop-color="#ff9321"/>
      <stop offset="1" stop-color="#ff931e"/>
    </radialGradient>
    <linearGradient id="uuid-50862ffc-5eef-44e1-a206-d00a42f5c644" data-name="未命名的渐变 36" x1="339.5" y1="154.2" x2="379.52" y2="44.23" gradientUnits="userSpaceOnUse">
      <stop offset="0" stop-color="#aad400"/>
      <stop offset=".52" stop-color="#d4a50a"/>
      <stop offset="1" stop-color="#ff7715"/>
    </linearGradient>
  </defs>
  <polygon class="uuid-8960c3c0-ca69-46f8-880e-1c01386cc5fa" points="13.01 194.19 415.51 37.22 152.51 437.22 13.01 194.19"/>
  <polygon class="uuid-24d6b846-0421-42a4-b777-786b55867374" points="42.51 94.22 218.51 433.22 462.95 290.72 42.51 94.22"/>
  <polygon class="uuid-1812f589-9891-4085-91d9-2f1a3e575afe" points="211.01 11.89 13.01 277.72 389.31 422.57 211.01 11.89"/>
  <g>
    <rect class="uuid-054a25c2-6ca7-4acb-b1c5-c73222ccb462" x="76.51" y="78.22" width="309" height="309" rx="25.36" ry="25.36"/>
    <path class="uuid-749b6b17-a62f-45c3-ae84-accd4f93e9cf" d="m360.15,81.72c12.05,0,21.86,9.81,21.86,21.86v258.28c0,12.05-9.81,21.86-21.86,21.86H101.87c-12.05,0-21.86-9.81-21.86-21.86V103.57c0-12.05,9.81-21.86,21.86-21.86h258.28m0-7H101.87c-15.94,0-28.86,12.92-28.86,28.86v258.28c0,15.94,12.92,28.86,28.86,28.86h258.28c15.94,0,28.86-12.92,28.86-28.86V103.57c0-15.94-12.92-28.86-28.86-28.86h0Z"/>
  </g>
  <g>
    <path class="uuid-7383fdd9-641e-4789-98a2-2c0912560434" d="m148.71,204.76c-5.46,0-10.45-1-14.98-3.01-4.52-2-8.41-4.91-11.65-8.7-3.24-3.8-5.76-8.38-7.55-13.76s-2.69-11.48-2.69-18.3.9-12.78,2.69-18.11c1.79-5.33,4.31-9.83,7.55-13.5,3.24-3.67,7.12-6.48,11.65-8.45,4.52-1.96,9.51-2.94,14.98-2.94s10.45.98,14.98,2.94c4.52,1.96,8.43,4.78,11.71,8.45,3.28,3.67,5.82,8.17,7.62,13.5,1.79,5.33,2.69,11.37,2.69,18.11s-.9,12.93-2.69,18.3-4.33,9.96-7.62,13.76c-3.29,3.8-7.19,6.7-11.71,8.7-4.52,2-9.52,3.01-14.98,3.01Zm0-12.93c3.33,0,6.31-.72,8.96-2.18,2.64-1.45,4.91-3.52,6.78-6.21,1.88-2.69,3.33-5.93,4.35-9.73,1.02-3.8,1.54-8.04,1.54-12.74,0-9.39-1.94-16.75-5.82-22.08-3.88-5.33-9.15-8-15.81-8s-11.93,2.67-15.81,8c-3.88,5.33-5.82,12.69-5.82,22.08,0,4.69.51,8.94,1.54,12.74,1.02,3.8,2.47,7.04,4.35,9.73,1.88,2.69,4.14,4.76,6.78,6.21,2.64,1.45,5.63,2.18,8.96,2.18Z"/>
    <path class="uuid-7383fdd9-641e-4789-98a2-2c0912560434" d="m207.33,203.22v-62.85h12.16l1.02,11.14h.51c2.22-4.1,4.91-7.23,8.06-9.41,3.16-2.18,6.4-3.26,9.73-3.26,2.99,0,5.38.43,7.17,1.28l-2.56,12.8c-1.11-.34-2.13-.6-3.07-.77-.94-.17-2.09-.26-3.46-.26-2.48,0-5.08.96-7.81,2.88-2.73,1.92-5.08,5.27-7.04,10.05v38.4h-14.72Z"/>
  </g>
  <rect class="uuid-7383fdd9-641e-4789-98a2-2c0912560434" x="112.01" y="334.72" width="134" height="10"/>
  <g>
    <path class="uuid-3a06c8a0-e86a-4224-b487-f6bd9e127a78" d="m407.01,194.65l-189.56,227.57c-2.6,3.13-2,7.81,1.31,10.17l25.22,18.02c3.13,2.24,7.48,1.53,9.73-1.59l173.14-238.73c2.21-3.05,1.61-7.31-1.36-9.63l-8.8-6.86c-2.98-2.32-7.26-1.86-9.68,1.04Z"/>
    <path class="uuid-dd3dbf29-49bf-40c7-a156-0c14f4a49960" d="m407.9,194.04l-54.28,64.77,24.68,17.63,49.08-67.22c2.03-2.61,1.57-6.37-1.04-8.4l-10.03-7.82c-2.61-2.03-6.37-1.57-8.4,1.04Z"/>
    <polygon class="uuid-a98edb5c-0c78-4d65-8d46-a150f642554c" points="421.67 164.25 430.02 190.06 456.01 197.81 434.05 213.72 434.71 240.84 412.79 224.87 387.2 233.88 395.62 208.09 379.14 186.54 406.27 186.58 421.67 164.25"/>
    <polygon class="uuid-881f2332-303c-4dad-bc60-78bce5cc33ef" points="419.82 184.49 423.89 197.07 436.56 200.85 425.85 208.61 426.17 221.83 415.49 214.04 403.01 218.43 407.12 205.86 399.09 195.36 412.31 195.37 419.82 184.49"/>
  </g>
  <circle class="uuid-c1c1f0ac-4bff-47e9-9943-e587d3d2559f" cx="359.51" cy="99.22" r="58.5"/>
</svg>