<?xml version="1.0" encoding="UTF-8"?>
<svg id="uuid-8fcf4cf8-0b58-4c52-bf24-3097887a5414" data-name="图层 1" xmlns="http://www.w3.org/2000/svg" viewBox="0 0 485 485">
  <defs>
    <style>
      .uuid-7c36df02-e2df-475b-ba98-6d7e266bb03f {
        fill: #4d4d4d;
      }

      .uuid-e22d255a-af7b-435e-96f8-7e1c81794e0f {
        fill: #333;
      }

      .uuid-e80d8fc0-b0ca-4b1e-9c63-2675b8e23843 {
        fill: #e6e6e6;
      }
    </style>
  </defs>
  <g>
    <rect class="uuid-e22d255a-af7b-435e-96f8-7e1c81794e0f" x="3.5" y="3.5" width="478" height="478" rx="25.36" ry="25.36"/>
    <path class="uuid-7c36df02-e2df-475b-ba98-6d7e266bb03f" d="m456.14,7c12.05,0,21.86,9.81,21.86,21.86v427.28c0,12.05-9.81,21.86-21.86,21.86H28.86c-12.05,0-21.86-9.81-21.86-21.86V28.86c0-12.05,9.81-21.86,21.86-21.86h427.28m0-7H28.86C12.92,0,0,12.92,0,28.86v427.28c0,15.94,12.92,28.86,28.86,28.86h427.28c15.94,0,28.86-12.92,28.86-28.86V28.86c0-15.94-12.92-28.86-28.86-28.86h0Z"/>
  </g>
  <g>
    <path class="uuid-e80d8fc0-b0ca-4b1e-9c63-2675b8e23843" d="m117.83,237.82c-10.92,0-20.91-2.01-29.95-6.02-9.05-4.01-16.81-9.81-23.3-17.41-6.49-7.59-11.52-16.77-15.1-27.52s-5.38-22.95-5.38-36.61,1.79-25.56,5.38-36.22c3.58-10.66,8.62-19.67,15.1-27.01,6.48-7.34,14.25-12.97,23.3-16.9,9.04-3.92,19.03-5.89,29.95-5.89s20.9,1.96,29.95,5.89c9.04,3.93,16.85,9.56,23.42,16.9,6.57,7.34,11.65,16.34,15.23,27.01,3.58,10.67,5.38,22.74,5.38,36.22s-1.79,25.86-5.38,36.61-8.66,19.93-15.23,27.52c-6.57,7.6-14.38,13.4-23.42,17.41-9.05,4.01-19.03,6.02-29.95,6.02Zm0-25.86c6.66,0,12.63-1.45,17.92-4.35,5.29-2.9,9.81-7.04,13.57-12.42,3.75-5.38,6.66-11.86,8.7-19.46,2.05-7.59,3.07-16.08,3.07-25.47,0-18.77-3.88-33.49-11.65-44.16-7.77-10.66-18.3-16-31.62-16s-23.85,5.34-31.62,16c-7.77,10.67-11.65,25.39-11.65,44.16,0,9.39,1.02,17.88,3.07,25.47,2.05,7.6,4.95,14.08,8.7,19.46,3.75,5.38,8.28,9.52,13.57,12.42,5.29,2.9,11.26,4.35,17.92,4.35Z"/>
    <path class="uuid-e80d8fc0-b0ca-4b1e-9c63-2675b8e23843" d="m235.08,234.75v-125.7h24.32l2.05,22.27h1.02c4.44-8.19,9.81-14.46,16.13-18.82,6.31-4.35,12.8-6.53,19.46-6.53,5.97,0,10.75.86,14.34,2.56l-5.12,25.6c-2.22-.68-4.27-1.19-6.14-1.54-1.88-.34-4.18-.51-6.91-.51-4.95,0-10.16,1.92-15.62,5.76-5.46,3.84-10.16,10.54-14.08,20.1v76.8h-29.44Z"/>
  </g>
  <rect class="uuid-e80d8fc0-b0ca-4b1e-9c63-2675b8e23843" x="44" y="404.57" width="268" height="18.43"/>
</svg>